<svg width="217" height="42" viewBox="0 0 217 42" fill="none" xmlns="http://www.w3.org/2000/svg">
<path d="M66.3567 20.1716H60.7676L60.7373 17.8239H65.8114C66.6495 17.8239 67.3816 17.6825 68.0076 17.3998C68.6337 17.1171 69.1184 16.7132 69.4617 16.1881C69.8151 15.6529 69.9918 15.0168 69.9918 14.2796C69.9918 13.4718 69.8353 12.8155 69.5223 12.3106C69.2193 11.7956 68.7498 11.422 68.1137 11.1898C67.4876 10.9474 66.6899 10.8262 65.7205 10.8262H61.4189V30.4863H58.4957V8.43311H65.7205C66.8514 8.43311 67.8612 8.54923 68.7498 8.78148C69.6384 9.00362 70.3907 9.35704 71.0066 9.84173C71.6327 10.3163 72.1073 10.9222 72.4304 11.6593C72.7535 12.3964 72.9151 13.28 72.9151 14.3099C72.9151 15.2187 72.6828 16.0417 72.2183 16.7788C71.7538 17.5058 71.1076 18.1016 70.2796 18.5661C69.4617 19.0306 68.5024 19.3284 67.4018 19.4597L66.3567 20.1716ZM66.2203 30.4863H59.6165L61.2675 28.1083H66.2203C67.1493 28.1083 67.9369 27.9468 68.5832 27.6237C69.2395 27.3005 69.7394 26.8461 70.0827 26.2605C70.426 25.6647 70.5977 24.9629 70.5977 24.1551C70.5977 23.3372 70.4513 22.6304 70.1584 22.0346C69.8656 21.4389 69.4061 20.9794 68.7801 20.6563C68.154 20.3332 67.3462 20.1716 66.3567 20.1716H62.1914L62.2217 17.8239H67.9167L68.5378 18.6721C69.598 18.763 70.4967 19.0659 71.2338 19.5809C71.9709 20.0858 72.5314 20.732 72.9151 21.5196C73.3089 22.3072 73.5058 23.1756 73.5058 24.1248C73.5058 25.4981 73.2029 26.6593 72.597 27.6085C72.0012 28.5476 71.1581 29.2645 70.0675 29.7593C68.977 30.244 67.6946 30.4863 66.2203 30.4863ZM76.6562 22.4739V22.1255C76.6562 20.9441 76.8279 19.8485 77.1712 18.8387C77.5145 17.8189 78.0093 16.9353 78.6556 16.1881C79.3018 15.4308 80.0844 14.8451 81.0033 14.4311C81.9222 14.007 82.9521 13.7949 84.0931 13.7949C85.2443 13.7949 86.2793 14.007 87.1982 14.4311C88.1272 14.8451 88.9148 15.4308 89.561 16.1881C90.2174 16.9353 90.7172 17.8189 91.0605 18.8387C91.4038 19.8485 91.5755 20.9441 91.5755 22.1255V22.4739C91.5755 23.6553 91.4038 24.7509 91.0605 25.7606C90.7172 26.7704 90.2174 27.6539 89.561 28.4113C88.9148 29.1585 88.1322 29.7442 87.2133 30.1683C86.3045 30.5823 85.2746 30.7893 84.1234 30.7893C82.9723 30.7893 81.9373 30.5823 81.0184 30.1683C80.0995 29.7442 79.3119 29.1585 78.6556 28.4113C78.0093 27.6539 77.5145 26.7704 77.1712 25.7606C76.8279 24.7509 76.6562 23.6553 76.6562 22.4739ZM79.4583 22.1255V22.4739C79.4583 23.2918 79.5543 24.0642 79.7461 24.7913C79.938 25.5082 80.2258 26.1443 80.6095 26.6997C81.0033 27.2551 81.493 27.6943 82.0787 28.0175C82.6643 28.3305 83.3459 28.487 84.1234 28.487C84.8909 28.487 85.5624 28.3305 86.1379 28.0175C86.7236 27.6943 87.2083 27.2551 87.592 26.6997C87.9757 26.1443 88.2635 25.5082 88.4553 24.7913C88.6573 24.0642 88.7583 23.2918 88.7583 22.4739V22.1255C88.7583 21.3177 88.6573 20.5553 88.4553 19.8384C88.2635 19.1113 87.9706 18.4702 87.5768 17.9148C87.1931 17.3493 86.7084 16.905 86.1228 16.5819C85.5472 16.2588 84.8707 16.0972 84.0931 16.0972C83.3257 16.0972 82.6492 16.2588 82.0635 16.5819C81.488 16.905 81.0033 17.3493 80.6095 17.9148C80.2258 18.4702 79.938 19.1113 79.7461 19.8384C79.5543 20.5553 79.4583 21.3177 79.4583 22.1255ZM94.3473 22.4739V22.1255C94.3473 20.9441 94.519 19.8485 94.8623 18.8387C95.2056 17.8189 95.7004 16.9353 96.3466 16.1881C96.9929 15.4308 97.7754 14.8451 98.6943 14.4311C99.6132 14.007 100.643 13.7949 101.784 13.7949C102.935 13.7949 103.97 14.007 104.889 14.4311C105.818 14.8451 106.606 15.4308 107.252 16.1881C107.908 16.9353 108.408 17.8189 108.752 18.8387C109.095 19.8485 109.267 20.9441 109.267 22.1255V22.4739C109.267 23.6553 109.095 24.7509 108.752 25.7606C108.408 26.7704 107.908 27.6539 107.252 28.4113C106.606 29.1585 105.823 29.7442 104.904 30.1683C103.996 30.5823 102.966 30.7893 101.814 30.7893C100.663 30.7893 99.6284 30.5823 98.7095 30.1683C97.7906 29.7442 97.003 29.1585 96.3466 28.4113C95.7004 27.6539 95.2056 26.7704 94.8623 25.7606C94.519 24.7509 94.3473 23.6553 94.3473 22.4739ZM97.1494 22.1255V22.4739C97.1494 23.2918 97.2453 24.0642 97.4372 24.7913C97.629 25.5082 97.9168 26.1443 98.3005 26.6997C98.6943 27.2551 99.1841 27.6943 99.7697 28.0175C100.355 28.3305 101.037 28.487 101.814 28.487C102.582 28.487 103.253 28.3305 103.829 28.0175C104.415 27.6943 104.899 27.2551 105.283 26.6997C105.667 26.1443 105.955 25.5082 106.146 24.7913C106.348 24.0642 106.449 23.2918 106.449 22.4739V22.1255C106.449 21.3177 106.348 20.5553 106.146 19.8384C105.955 19.1113 105.662 18.4702 105.268 17.9148C104.884 17.3493 104.399 16.905 103.814 16.5819C103.238 16.2588 102.562 16.0972 101.784 16.0972C101.017 16.0972 100.34 16.2588 99.7546 16.5819C99.179 16.905 98.6943 17.3493 98.3005 17.9148C97.9168 18.4702 97.629 19.1113 97.4372 19.8384C97.2453 20.5553 97.1494 21.3177 97.1494 22.1255ZM115.567 17.3544V30.4863H112.75V14.0979H115.416L115.567 17.3544ZM114.992 21.6711L113.689 21.6257C113.699 20.5048 113.846 19.4698 114.129 18.5206C114.411 17.5614 114.83 16.7283 115.386 16.0215C115.941 15.3146 116.633 14.7694 117.461 14.3857C118.289 13.9919 119.248 13.7949 120.339 13.7949C121.106 13.7949 121.813 13.906 122.459 14.1282C123.105 14.3402 123.666 14.6785 124.14 15.143C124.615 15.6075 124.983 16.2032 125.246 16.9303C125.509 17.6573 125.64 18.5358 125.64 19.5657V30.4863H122.838V19.7021C122.838 18.8438 122.691 18.1571 122.399 17.6421C122.116 17.1272 121.712 16.7536 121.187 16.5213C120.662 16.279 120.046 16.1578 119.339 16.1578C118.511 16.1578 117.819 16.3042 117.264 16.597C116.708 16.8899 116.264 17.2938 115.931 17.8088C115.598 18.3237 115.355 18.9144 115.204 19.5809C115.063 20.2372 114.992 20.934 114.992 21.6711ZM125.61 20.1262L123.731 20.7017C123.741 19.803 123.888 18.9397 124.171 18.1117C124.463 17.2837 124.883 16.5466 125.428 15.9003C125.983 15.2541 126.665 14.7441 127.473 14.3705C128.28 13.9868 129.204 13.7949 130.244 13.7949C131.123 13.7949 131.9 13.9111 132.577 14.1433C133.264 14.3756 133.839 14.734 134.304 15.2187C134.778 15.6933 135.137 16.3042 135.379 17.0514C135.621 17.7987 135.743 18.6872 135.743 19.7172V30.4863H132.925V19.6869C132.925 18.768 132.779 18.0561 132.486 17.5513C132.203 17.0363 131.799 16.6778 131.274 16.4759C130.759 16.2638 130.143 16.1578 129.426 16.1578C128.811 16.1578 128.265 16.2638 127.791 16.4759C127.316 16.6879 126.917 16.9808 126.594 17.3544C126.271 17.7179 126.024 18.1369 125.852 18.6115C125.69 19.0861 125.61 19.591 125.61 20.1262ZM146.784 30.7893C145.643 30.7893 144.608 30.5974 143.679 30.2137C142.76 29.8199 141.968 29.2696 141.301 28.5627C140.645 27.8559 140.14 27.0178 139.787 26.0484C139.433 25.079 139.256 24.0188 139.256 22.8677V22.2315C139.256 20.8986 139.453 19.7122 139.847 18.6721C140.241 17.6219 140.776 16.7334 141.453 16.0063C142.129 15.2793 142.897 14.729 143.755 14.3554C144.613 13.9818 145.502 13.7949 146.421 13.7949C147.592 13.7949 148.602 13.9969 149.45 14.4008C150.308 14.8047 151.01 15.3702 151.555 16.0972C152.101 16.8141 152.505 17.6623 152.767 18.6418C153.03 19.6112 153.161 20.6714 153.161 21.8226V23.0797H140.923V20.7926H150.359V20.5806C150.318 19.8535 150.167 19.1467 149.904 18.4601C149.652 17.7734 149.248 17.2079 148.693 16.7637C148.137 16.3194 147.38 16.0972 146.421 16.0972C145.785 16.0972 145.199 16.2335 144.664 16.5062C144.129 16.7687 143.669 17.1625 143.285 17.6876C142.902 18.2127 142.604 18.8539 142.392 19.6112C142.18 20.3685 142.074 21.2419 142.074 22.2315V22.8677C142.074 23.6452 142.18 24.3773 142.392 25.0639C142.614 25.7404 142.932 26.3362 143.346 26.8512C143.77 27.3662 144.28 27.7701 144.876 28.0629C145.482 28.3557 146.168 28.5021 146.936 28.5021C147.925 28.5021 148.763 28.3002 149.45 27.8963C150.137 27.4924 150.738 26.9522 151.252 26.2756L152.949 27.6237C152.595 28.1588 152.146 28.6688 151.601 29.1534C151.056 29.6381 150.384 30.0319 149.586 30.3349C148.799 30.6378 147.865 30.7893 146.784 30.7893ZM159.235 16.6728V30.4863H156.433V14.0979H159.159L159.235 16.6728ZM164.354 14.007L164.339 16.6122C164.107 16.5617 163.885 16.5314 163.673 16.5213C163.471 16.5011 163.238 16.491 162.976 16.491C162.33 16.491 161.759 16.592 161.264 16.7939C160.769 16.9959 160.35 17.2786 160.007 17.6421C159.664 18.0057 159.391 18.4399 159.189 18.9447C158.997 19.4395 158.871 19.9848 158.811 20.5806L158.023 21.0349C158.023 20.0454 158.119 19.1164 158.311 18.248C158.513 17.3796 158.821 16.6122 159.235 15.9457C159.649 15.2692 160.174 14.7441 160.81 14.3705C161.456 13.9868 162.224 13.7949 163.112 13.7949C163.314 13.7949 163.546 13.8202 163.809 13.8707C164.071 13.9111 164.253 13.9565 164.354 14.007ZM176.002 27.6842V19.2477C176.002 18.6014 175.87 18.041 175.608 17.5664C175.356 17.0817 174.972 16.7081 174.457 16.4456C173.942 16.183 173.306 16.0518 172.548 16.0518C171.842 16.0518 171.221 16.1729 170.685 16.4153C170.16 16.6576 169.746 16.9757 169.443 17.3695C169.151 17.7633 169.004 18.1874 169.004 18.6418H166.202C166.202 18.0561 166.353 17.4755 166.656 16.9C166.959 16.3244 167.394 15.8044 167.959 15.3399C168.535 14.8653 169.221 14.4917 170.019 14.219C170.827 13.9363 171.725 13.7949 172.715 13.7949C173.907 13.7949 174.957 13.9969 175.865 14.4008C176.784 14.8047 177.501 15.4156 178.016 16.2335C178.541 17.0413 178.804 18.0561 178.804 19.278V26.9118C178.804 27.457 178.849 28.0377 178.94 28.6536C179.041 29.2696 179.188 29.7997 179.379 30.244V30.4863H176.456C176.315 30.1632 176.204 29.7341 176.123 29.1989C176.042 28.6536 176.002 28.1487 176.002 27.6842ZM176.486 20.5503L176.517 22.5193H173.684C172.887 22.5193 172.175 22.5849 171.549 22.7162C170.923 22.8374 170.398 23.0242 169.973 23.2766C169.549 23.5291 169.226 23.8471 169.004 24.2308C168.782 24.6045 168.671 25.0437 168.671 25.5486C168.671 26.0636 168.787 26.5331 169.019 26.9572C169.251 27.3813 169.6 27.7196 170.064 27.972C170.539 28.2144 171.12 28.3355 171.806 28.3355C172.664 28.3355 173.422 28.1538 174.078 27.7903C174.735 27.4267 175.255 26.9825 175.638 26.4574C176.032 25.9323 176.244 25.4224 176.274 24.9276L177.471 26.2756C177.4 26.6997 177.208 27.1693 176.895 27.6842C176.582 28.1992 176.163 28.694 175.638 29.1686C175.123 29.6331 174.507 30.0218 173.79 30.3349C173.084 30.6378 172.286 30.7893 171.397 30.7893C170.287 30.7893 169.312 30.5722 168.474 30.138C167.646 29.7038 167 29.1231 166.535 28.3961C166.081 27.659 165.854 26.836 165.854 25.9272C165.854 25.0488 166.025 24.2763 166.369 23.6098C166.712 22.9333 167.207 22.3729 167.853 21.9286C168.499 21.4742 169.277 21.1309 170.186 20.8986C171.094 20.6664 172.109 20.5503 173.23 20.5503H176.486ZM186.014 17.5967V30.4863H183.211V14.0979H185.862L186.014 17.5967ZM185.347 21.6711L184.181 21.6257C184.191 20.5048 184.358 19.4698 184.681 18.5206C185.004 17.5614 185.458 16.7283 186.044 16.0215C186.63 15.3146 187.326 14.7694 188.134 14.3857C188.952 13.9919 189.856 13.7949 190.845 13.7949C191.653 13.7949 192.38 13.906 193.026 14.1282C193.673 14.3402 194.223 14.6835 194.677 15.1581C195.142 15.6327 195.495 16.2487 195.738 17.006C195.98 17.7532 196.101 18.6671 196.101 19.7475V30.4863H193.284V19.7172C193.284 18.8589 193.158 18.1723 192.905 17.6573C192.653 17.1322 192.284 16.7536 191.8 16.5213C191.315 16.279 190.719 16.1578 190.012 16.1578C189.315 16.1578 188.679 16.3042 188.104 16.597C187.538 16.8899 187.049 17.2938 186.635 17.8088C186.231 18.3237 185.913 18.9144 185.68 19.5809C185.458 20.2372 185.347 20.934 185.347 21.6711ZM210.975 14.0979H213.519V30.138C213.519 31.5819 213.227 32.8138 212.641 33.8337C212.055 34.8536 211.237 35.626 210.187 36.1511C209.147 36.6863 207.946 36.9539 206.582 36.9539C206.017 36.9539 205.351 36.863 204.583 36.6812C203.826 36.5096 203.079 36.2117 202.341 35.7876C201.614 35.3736 201.003 34.8132 200.509 34.1063L201.978 32.4402C202.665 33.2682 203.381 33.8438 204.129 34.1669C204.886 34.49 205.633 34.6516 206.37 34.6516C207.259 34.6516 208.026 34.485 208.673 34.1518C209.319 33.8185 209.819 33.3238 210.172 32.6674C210.536 32.0212 210.717 31.2235 210.717 30.2743V17.7027L210.975 14.0979ZM199.691 22.4739V22.1558C199.691 20.9037 199.837 19.7677 200.13 18.7478C200.433 17.7179 200.862 16.8343 201.417 16.0972C201.983 15.3601 202.665 14.7946 203.462 14.4008C204.26 13.9969 205.159 13.7949 206.158 13.7949C207.188 13.7949 208.087 13.9767 208.854 14.3402C209.632 14.6936 210.288 15.2137 210.823 15.9003C211.369 16.5768 211.798 17.3948 212.111 18.354C212.424 19.3133 212.641 20.3988 212.762 21.6105V23.004C212.651 24.2056 212.434 25.286 212.111 26.2453C211.798 27.2046 211.369 28.0225 210.823 28.699C210.288 29.3756 209.632 29.8956 208.854 30.2591C208.077 30.6125 207.168 30.7893 206.128 30.7893C205.149 30.7893 204.26 30.5823 203.462 30.1683C202.675 29.7543 201.998 29.1736 201.433 28.4264C200.867 27.6792 200.433 26.8007 200.13 25.7909C199.837 24.7711 199.691 23.6654 199.691 22.4739ZM202.493 22.1558V22.4739C202.493 23.2918 202.574 24.0592 202.735 24.7761C202.907 25.4931 203.164 26.1242 203.508 26.6694C203.861 27.2147 204.31 27.6438 204.856 27.9569C205.401 28.2598 206.052 28.4113 206.81 28.4113C207.739 28.4113 208.506 28.2144 209.112 27.8206C209.718 27.4267 210.197 26.9067 210.551 26.2605C210.914 25.6142 211.197 24.9124 211.399 24.1551V20.5048C211.288 19.9495 211.116 19.4143 210.884 18.8993C210.662 18.3742 210.369 17.9097 210.006 17.5058C209.652 17.0918 209.213 16.7637 208.688 16.5213C208.163 16.279 207.547 16.1578 206.84 16.1578C206.072 16.1578 205.411 16.3194 204.856 16.6425C204.31 16.9555 203.861 17.3897 203.508 17.9451C203.164 18.4903 202.907 19.1265 202.735 19.8535C202.574 20.5705 202.493 21.3379 202.493 22.1558Z" fill="#999999"/>
<path d="M18.1831 18.3168C25.9889 13.413 36.5204 17.0451 32.1166 25.6268C27.7128 34.2034 -12.5521 18.3066 3.9495 26.2067C20.4511 34.1068 26.8127 50.1968 33.5659 34.9868C40.3191 19.7768 48.4555 -13.1358 25.5719 6.8661C2.68837 26.868 8.43977 24.4313 18.1831 18.3168Z" fill="#999999"/>
</svg>
