<svg width="157" height="42" viewBox="0 0 157 42" fill="none" xmlns="http://www.w3.org/2000/svg">
<path d="M65.3484 30.4619H60.7439L60.7741 28.0839H65.3484C66.9236 28.0839 68.2363 27.7557 69.2864 27.0994C70.3366 26.433 71.1242 25.504 71.6493 24.3125C72.1845 23.1108 72.4521 21.7073 72.4521 20.1017V18.7537C72.4521 17.4915 72.3006 16.3707 71.9977 15.3912C71.6947 14.4016 71.2504 13.5686 70.6648 12.892C70.0791 12.2054 69.3622 11.6854 68.514 11.332C67.6759 10.9785 66.7115 10.8018 65.621 10.8018H60.653V8.40869H65.621C67.065 8.40869 68.3827 8.65104 69.5742 9.13572C70.7657 9.61031 71.7907 10.302 72.649 11.2108C73.5174 12.1095 74.1838 13.2 74.6483 14.4824C75.1128 15.7547 75.345 17.1886 75.345 18.784V20.1017C75.345 21.6972 75.1128 23.1361 74.6483 24.4185C74.1838 25.6908 73.5123 26.7763 72.6338 27.675C71.7654 28.5737 70.7153 29.2653 69.4833 29.75C68.2615 30.2246 66.8832 30.4619 65.3484 30.4619ZM62.3039 8.40869V30.4619H59.3807V8.40869H62.3039ZM82.1155 16.6484V30.4619H79.3134V14.0735H82.0398L82.1155 16.6484ZM87.235 13.9826L87.2198 16.5878C86.9876 16.5373 86.7654 16.507 86.5534 16.4969C86.3514 16.4767 86.1192 16.4666 85.8567 16.4666C85.2104 16.4666 84.6399 16.5676 84.1451 16.7695C83.6503 16.9715 83.2313 17.2542 82.888 17.6177C82.5446 17.9812 82.272 18.4154 82.07 18.9203C81.8782 19.4151 81.752 19.9604 81.6914 20.5561L80.9038 21.0105C80.9038 20.021 80.9997 19.092 81.1915 18.2236C81.3935 17.3552 81.7015 16.5878 82.1155 15.9213C82.5295 15.2448 83.0546 14.7197 83.6907 14.3461C84.337 13.9624 85.1044 13.7705 85.993 13.7705C86.1949 13.7705 86.4272 13.7958 86.6897 13.8463C86.9522 13.8867 87.134 13.9321 87.235 13.9826ZM88.7799 22.4494V22.1011C88.7799 20.9197 88.9516 19.8241 89.2949 18.8143C89.6382 17.7944 90.133 16.9109 90.7792 16.1637C91.4255 15.4064 92.2081 14.8207 93.1269 14.4067C94.0458 13.9826 95.0758 13.7705 96.2168 13.7705C97.3679 13.7705 98.403 13.9826 99.3218 14.4067C100.251 14.8207 101.038 15.4064 101.685 16.1637C102.341 16.9109 102.841 17.7944 103.184 18.8143C103.528 19.8241 103.699 20.9197 103.699 22.1011V22.4494C103.699 23.6309 103.528 24.7265 103.184 25.7362C102.841 26.746 102.341 27.6295 101.685 28.3869C101.038 29.1341 100.256 29.7197 99.337 30.1438C98.4282 30.5578 97.3982 30.7648 96.2471 30.7648C95.096 30.7648 94.061 30.5578 93.1421 30.1438C92.2232 29.7197 91.4356 29.1341 90.7792 28.3869C90.133 27.6295 89.6382 26.746 89.2949 25.7362C88.9516 24.7265 88.7799 23.6309 88.7799 22.4494ZM91.582 22.1011V22.4494C91.582 23.2674 91.6779 24.0398 91.8698 24.7669C92.0616 25.4838 92.3494 26.1199 92.7331 26.6753C93.1269 27.2307 93.6167 27.6699 94.2023 27.993C94.788 28.3061 95.4696 28.4626 96.2471 28.4626C97.0145 28.4626 97.686 28.3061 98.2616 27.993C98.8473 27.6699 99.3319 27.2307 99.7156 26.6753C100.099 26.1199 100.387 25.4838 100.579 24.7669C100.781 24.0398 100.882 23.2674 100.882 22.4494V22.1011C100.882 21.2933 100.781 20.5309 100.579 19.814C100.387 19.0869 100.094 18.4457 99.7005 17.8904C99.3168 17.3249 98.8321 16.8806 98.2464 16.5575C97.6709 16.2344 96.9943 16.0728 96.2168 16.0728C95.4494 16.0728 94.7729 16.2344 94.1872 16.5575C93.6116 16.8806 93.1269 17.3249 92.7331 17.8904C92.3494 18.4457 92.0616 19.0869 91.8698 19.814C91.6779 20.5309 91.582 21.2933 91.582 22.1011ZM110.015 17.2239V36.7628H107.198V14.0735H109.773L110.015 17.2239ZM121.057 22.1314V22.4494C121.057 23.641 120.916 24.7467 120.633 25.7665C120.35 26.7763 119.936 27.6548 119.391 28.402C118.856 29.1492 118.194 29.7298 117.407 30.1438C116.619 30.5578 115.715 30.7648 114.695 30.7648C113.655 30.7648 112.737 30.5932 111.939 30.2499C111.141 29.9065 110.465 29.4067 109.909 28.7504C109.354 28.094 108.91 27.3064 108.576 26.3875C108.253 25.4686 108.031 24.4336 107.91 23.2825V21.5861C108.031 20.3744 108.258 19.2889 108.591 18.3296C108.925 17.3703 109.364 16.5524 109.909 15.8759C110.465 15.1893 111.136 14.6692 111.924 14.3158C112.711 13.9523 113.62 13.7705 114.65 13.7705C115.68 13.7705 116.594 13.9725 117.392 14.3764C118.189 14.7702 118.861 15.3357 119.406 16.0728C119.951 16.8099 120.36 17.6935 120.633 18.7234C120.916 19.7433 121.057 20.8793 121.057 22.1314ZM118.24 22.4494V22.1314C118.24 21.3135 118.154 20.546 117.982 19.8291C117.811 19.1021 117.543 18.4659 117.179 17.9207C116.826 17.3653 116.372 16.9311 115.816 16.6181C115.261 16.2949 114.6 16.1334 113.832 16.1334C113.125 16.1334 112.509 16.2546 111.984 16.4969C111.469 16.7392 111.03 17.0674 110.667 17.4814C110.303 17.8853 110.005 18.3498 109.773 18.8749C109.551 19.3899 109.384 19.925 109.273 20.4804V24.4033C109.475 25.1102 109.758 25.7766 110.121 26.4027C110.485 27.0186 110.969 27.5185 111.575 27.9022C112.181 28.2758 112.944 28.4626 113.862 28.4626C114.62 28.4626 115.271 28.3061 115.816 27.993C116.372 27.6699 116.826 27.2307 117.179 26.6753C117.543 26.1199 117.811 25.4838 117.982 24.7669C118.154 24.0398 118.24 23.2674 118.24 22.4494ZM127.676 7.19698V30.4619H124.859V7.19698H127.676ZM138.975 30.7648C137.834 30.7648 136.799 30.573 135.87 30.1893C134.951 29.7955 134.159 29.2451 133.492 28.5383C132.836 27.8315 132.331 26.9934 131.978 26.024C131.624 25.0546 131.447 23.9944 131.447 22.8433V22.2071C131.447 20.8742 131.644 19.6877 132.038 18.6477C132.432 17.5975 132.967 16.7089 133.644 15.9819C134.32 15.2549 135.088 14.7046 135.946 14.331C136.804 13.9573 137.693 13.7705 138.612 13.7705C139.783 13.7705 140.793 13.9725 141.641 14.3764C142.499 14.7803 143.201 15.3458 143.746 16.0728C144.292 16.7897 144.696 17.6379 144.958 18.6174C145.221 19.5868 145.352 20.647 145.352 21.7981V23.0553H133.114V20.7682H142.55V20.5561C142.509 19.8291 142.358 19.1223 142.095 18.4356C141.843 17.749 141.439 17.1835 140.884 16.7392C140.328 16.2949 139.571 16.0728 138.612 16.0728C137.976 16.0728 137.39 16.2091 136.855 16.4817C136.32 16.7443 135.86 17.1381 135.476 17.6632C135.093 18.1882 134.795 18.8294 134.583 19.5868C134.371 20.3441 134.265 21.2175 134.265 22.2071V22.8433C134.265 23.6208 134.371 24.3528 134.583 25.0395C134.805 25.716 135.123 26.3118 135.537 26.8268C135.961 27.3417 136.471 27.7457 137.067 28.0385C137.673 28.3313 138.359 28.4777 139.127 28.4777C140.116 28.4777 140.954 28.2758 141.641 27.8719C142.328 27.468 142.928 26.9277 143.443 26.2512L145.14 27.5992C144.786 28.1344 144.337 28.6443 143.792 29.129C143.247 29.6137 142.575 30.0075 141.777 30.3104C140.99 30.6134 140.056 30.7648 138.975 30.7648ZM155.485 14.0735V16.2243H146.624V14.0735H155.485ZM149.623 10.0899H152.425V26.4027C152.425 26.958 152.511 27.3771 152.683 27.6598C152.854 27.9426 153.077 28.1294 153.349 28.2202C153.622 28.3111 153.915 28.3566 154.228 28.3566C154.46 28.3566 154.702 28.3364 154.955 28.296C155.217 28.2455 155.414 28.2051 155.545 28.1748L155.561 30.4619C155.338 30.5326 155.046 30.5982 154.682 30.6588C154.329 30.7295 153.9 30.7648 153.395 30.7648C152.708 30.7648 152.077 30.6285 151.501 30.3559C150.926 30.0833 150.466 29.6289 150.123 28.9927C149.79 28.3465 149.623 27.4781 149.623 26.3875V10.0899Z" fill="#999999"/>
<path d="M4.27002 12.834C15.8186 -7.21375 36.3934 -1.02292 29.9301 19.7522C23.4668 40.5274 42.4499 20.6831 41.5346 32.7189C40.6193 44.7546 4.69718 43.8288 16.2407 31.7829C27.7791 19.737 29.1063 15.6013 17.2374 23.3538C5.36843 31.1063 -4.5732 28.1813 4.27002 12.834Z" fill="#999999"/>
<path d="M4.27002 12.834C15.8186 -7.21375 36.3934 -1.02292 29.9301 19.7522C23.4668 40.5274 42.4499 20.6831 41.5346 32.7189C40.6193 44.7546 4.69718 43.8288 16.2407 31.7829C27.7791 19.737 29.1063 15.6013 17.2374 23.3538C5.36843 31.1063 -4.5732 28.1813 4.27002 12.834Z" fill="#999999"/>
</svg>
